# Generated with liteGL.js by Javi Agenjo

v 0.8883 0.1024 0.3887
v -0.1117 0.1024 -0.6113
v -0.1117 0.1024 0.3887
v 0.8883 0.1024 0.3887
v 0.8883 0.1024 -0.6113
v -0.1117 0.1024 -0.6113

vn 0.0000 1.0000 0.0000
vn 0.0000 1.0000 0.0000
vn 0.0000 1.0000 0.0000
vn 0.0000 1.0000 0.0000
vn 0.0000 1.0000 0.0000
vn 0.0000 1.0000 0.0000

vt 0.5000 0.5000  0.0000
vt 0.5000 0.5000  0.0000
vt 0.5000 0.5000  0.0000
vt 0.5000 0.5000  0.0000
vt 0.5000 0.5000  0.0000
vt 0.5000 0.5000  0.0000
g mesh_0
usemtl mat_0
f 1/1/1 2/2/2 3/3/3
f 4/4/4 5/5/5 6/6/6